<svg xmlns="http://www.w3.org/2000/svg" width="26" height="34" viewBox="0 0 26 34">
    <path fill="#FFF" fill-rule="nonzero" d="M11.598 12.219H3.676a.502.502 0 0 0-.492.493v7.93c0 .266.227.494.492.494h7.922a.502.502 0 0 0 .492-.493v-7.969c-.038-.228-.227-.455-.492-.455zm-.493 7.93H4.131v-6.982h6.974v6.983zm5.079 7.855c0-.265.227-.493.492-.493h3.487c.266 0 .493.228.493.493a.502.502 0 0 1-.493.494h-3.487c-.265-.038-.492-.228-.492-.494zm0-1.821c0-.266.227-.493.492-.493h3.487c.266 0 .493.227.493.493a.502.502 0 0 1-.493.493h-3.487c-.265-.038-.492-.227-.492-.493zM5.42 16.658c0-.265.227-.493.493-.493h1.25v-1.252c0-.266.228-.493.493-.493s.493.227.493.493v1.29h1.25c.266 0 .493.228.493.493a.502.502 0 0 1-.493.494H8.15v1.252a.502.502 0 0 1-.493.493.502.502 0 0 1-.493-.493V17.19h-1.25c-.266-.038-.493-.266-.493-.532zm.53 11.422l.986-.986-.986-.987a.481.481 0 0 1 0-.683.48.48 0 0 1 .683 0l.985.987.985-.987a.48.48 0 0 1 .683 0c.19.19.19.493 0 .683l-.986.987.986.986c.19.19.19.494 0 .683a.564.564 0 0 1-.341.152.463.463 0 0 1-.342-.152l-.985-.986-.985.986a.564.564 0 0 1-.341.152.463.463 0 0 1-.342-.152.57.57 0 0 1 0-.683zm5.648-5.426H3.676a.502.502 0 0 0-.492.493v7.931c0 .266.227.493.492.493h7.922a.502.502 0 0 0 .492-.493V23.11c-.038-.265-.227-.455-.492-.455zm-.493 7.93H4.131v-6.981h6.974v6.982zm11.257-7.93H14.44a.502.502 0 0 0-.492.493v7.931c0 .266.227.493.492.493h7.922a.502.502 0 0 0 .492-.493V23.11c0-.265-.227-.455-.492-.455zm-.455 7.93h-7.012v-6.981h6.974v6.982h.038zM3.563 10.588h18.874a.502.502 0 0 0 .493-.493V3.415a.502.502 0 0 0-.493-.493H3.563a.502.502 0 0 0-.493.493v6.679c0 .265.227.493.493.493zm.454-6.679h17.928v5.73H4.017v-5.73zm12.167 12.75c0-.265.227-.493.492-.493h3.487c.266 0 .493.228.493.493a.502.502 0 0 1-.493.494h-3.487a.502.502 0 0 1-.492-.494zM25.507 0H.493A.502.502 0 0 0 0 .493v33.014c0 .265.227.493.493.493h25.014a.502.502 0 0 0 .493-.493V.493A.478.478 0 0 0 25.507 0zm-.455 33.013H.948V.95h24.104v32.064zm-3.79-24.665a.502.502 0 0 1-.492.494H14.06a.502.502 0 0 1-.492-.494c0-.265.227-.493.492-.493h6.747c.265 0 .454.228.454.493zm1.1 3.87H14.44a.502.502 0 0 0-.492.494v7.93c0 .266.227.494.492.494h7.922a.502.502 0 0 0 .492-.493v-7.969c0-.228-.227-.455-.492-.455zm-.455 7.932h-7.012v-6.983h6.974v6.983h.038zM12.545 8.348a.502.502 0 0 1-.493.494h-.53a.502.502 0 0 1-.493-.494c0-.265.228-.493.493-.493h.53c.304 0 .493.228.493.493zm-2.463 0a.502.502 0 0 1-.493.494H9.55a.502.502 0 0 1-.493-.494c0-.265.228-.493.493-.493h.038c.265 0 .493.228.493.493z"/>
</svg>
