<svg xmlns="http://www.w3.org/2000/svg" width="453" height="530" viewBox="0 0 453 530">
    <path fill="#6F4295" fill-opacity=".5" fill-rule="nonzero" d="M191.879 207.71L89.174 235.23c-3.44.922-5.596 4.668-4.672 8.117l27.59 102.967c.924 3.448 4.664 5.614 8.104 4.693l102.705-27.52c3.44-.922 5.596-4.668 4.672-8.116l-27.722-103.46c-1.283-2.825-4.532-5.122-7.972-4.2zm21.201 104.68l-90.42 24.227-24.289-90.65 90.42-24.228 24.29 90.65zm93.175 84.337c-.924-3.449 1.233-7.195 4.673-8.117l45.21-12.113c3.44-.922 7.18 1.244 8.104 4.692.924 3.45-1.232 7.195-4.672 8.117l-45.21 12.114c-3.572.429-7.18-1.244-8.105-4.693zm-6.336-23.648c-.924-3.449 1.232-7.195 4.672-8.116l45.21-12.114c3.44-.922 7.18 1.244 8.105 4.692.924 3.45-1.233 7.195-4.673 8.117l-45.21 12.114c-3.571.429-7.18-1.244-8.104-4.693zm-172.695-86.264c-.924-3.449 1.232-7.195 4.672-8.116l16.217-4.345-4.357-16.258c-.924-3.45 1.233-7.195 4.673-8.117 3.44-.922 7.18 1.244 8.104 4.693l4.488 16.75 16.217-4.345c3.44-.921 7.18 1.245 8.104 4.693.924 3.449-1.232 7.195-4.672 8.117l-16.216 4.345 4.356 16.258c.924 3.449-1.232 7.195-4.672 8.116-3.44.922-7.18-1.244-8.105-4.693l-4.356-16.258-16.217 4.346c-3.572.429-7.312-1.737-8.236-5.186zm46.614 146.449l9.345-16.233-16.21-9.386a6.476 6.476 0 0 1-2.375-8.868 6.437 6.437 0 0 1 8.845-2.37l16.21 9.386 9.344-16.233a6.437 6.437 0 0 1 8.845-2.37 6.476 6.476 0 0 1 2.376 8.868l-9.344 16.233 16.209 9.386a6.476 6.476 0 0 1 2.376 8.868c-.719 1.248-2.42 2.76-3.895 3.155-1.474.395-3.08.298-4.95-.785l-16.21-9.386-9.344 16.233c-.719 1.248-2.42 2.76-3.895 3.156-1.474.395-3.08.297-4.95-.786-2.626-1.937-3.682-5.878-2.377-8.868zm54.343-90.07l-102.705 27.52c-3.44.92-5.596 4.667-4.672 8.116l27.59 102.967c.924 3.448 4.665 5.614 8.105 4.693l102.705-27.52c3.44-.922 5.596-4.668 4.672-8.117l-27.722-103.46c-1.416-3.316-4.533-5.121-7.973-4.2zm21.202 104.678l-90.42 24.228-24.29-90.65 90.42-24.228 24.29 90.65zm118.36-142.074l-102.706 27.52c-3.44.922-5.596 4.668-4.672 8.116l27.59 102.967c.924 3.45 4.665 5.615 8.104 4.693l102.705-27.52c3.44-.921 5.597-4.667 4.673-8.116l-27.722-103.46c-.924-3.448-4.533-5.121-7.973-4.2zm21.692 104.547l-90.91 24.36-24.29-90.65 90.42-24.228 24.289 90.65.491-.132zM82.023 214.441l244.723-65.574c3.44-.921 5.596-4.667 4.672-8.116l-23.233-86.71c-.924-3.448-4.665-5.614-8.105-4.692L55.357 114.922c-3.44.922-5.596 4.668-4.672 8.117l23.234 86.709c.924 3.448 4.664 5.614 8.104 4.693zm-17.336-88.29l232.437-62.28 19.933 74.392L84.62 200.544l-19.933-74.392zM266.785 249.42c-.924-3.449 1.232-7.195 4.672-8.116l45.21-12.114c3.44-.922 7.18 1.244 8.104 4.692.924 3.45-1.232 7.195-4.672 8.117l-45.21 12.114c-3.44.922-7.18-1.244-8.104-4.693zM329.72.748L5.388 87.653c-3.44.921-5.596 4.667-4.672 8.116l114.848 428.619c.924 3.448 4.665 5.614 8.105 4.693L448 442.176c3.44-.921 5.596-4.667 4.672-8.116L337.824 5.441C336.768 1.5 333.16-.173 329.72.748zm108.95 430.2L126.134 514.69 14.586 98.39l312.537-83.744 111.548 416.302zM303.725 123.881c.924 3.449-1.233 7.195-4.672 8.116l-86.98 23.307c-3.44.921-7.18-1.245-8.105-4.693-.924-3.449 1.233-7.195 4.672-8.117l87.472-23.438c3.44-.921 6.689 1.376 7.613 4.825zm27.716 46.433l-102.705 27.52c-3.44.922-5.597 4.668-4.673 8.116l27.59 102.968c.924 3.448 4.665 5.614 8.105 4.692l102.705-27.52c3.44-.921 5.596-4.667 4.672-8.116l-27.722-103.46c-.792-2.955-4.533-5.121-7.972-4.2zm21.693 104.547l-90.911 24.36-24.29-90.65 90.42-24.228 24.29 90.65.49-.132zM190.699 154.167c.924 3.449-1.232 7.195-4.672 8.116l-6.88 1.844c-3.44.921-7.18-1.245-8.104-4.693-.924-3.449 1.232-7.195 4.672-8.117l6.88-1.843c3.931-1.053 7.18 1.244 8.104 4.693zm-31.942 8.559c.924 3.448-1.232 7.194-4.672 8.116l-.491.132c-3.44.921-7.18-1.245-8.105-4.693-.924-3.449 1.233-7.195 4.673-8.117l.491-.131c3.44-.922 7.18 1.244 8.104 4.693z" opacity=".1"/>
</svg>
