<svg xmlns="http://www.w3.org/2000/svg" width="59" height="77" viewBox="0 0 59 77">
    <path fill="#000" fill-rule="nonzero" d="M26.318 27.672H8.343c-.602 0-1.119.515-1.119 1.117V46.75c0 .602.517 1.117 1.119 1.117h17.975c.602 0 1.118-.515 1.118-1.117V28.703c-.086-.515-.516-1.031-1.118-1.031zM25.2 45.632H9.375V29.82H25.2v15.813zm11.524 17.79c0-.602.517-1.117 1.119-1.117h7.912c.602 0 1.118.515 1.118 1.117 0 .601-.516 1.117-1.118 1.117h-7.912c-.602-.086-1.119-.516-1.119-1.117zm0-4.125c0-.602.517-1.117 1.119-1.117h7.912c.602 0 1.118.515 1.118 1.117 0 .601-.516 1.117-1.118 1.117h-7.912c-.602-.086-1.119-.516-1.119-1.117zM12.3 37.727c0-.602.516-1.118 1.118-1.118h2.838v-2.836c0-.601.516-1.117 1.118-1.117.602 0 1.118.516 1.118 1.117v2.922h2.838c.602 0 1.119.516 1.119 1.117 0 .602-.517 1.118-1.119 1.118h-2.838v2.836c0 .601-.516 1.117-1.118 1.117a1.138 1.138 0 0 1-1.118-1.117V38.93h-2.838c-.602-.086-1.118-.602-1.118-1.203zm1.204 25.867l2.236-2.235-2.236-2.234a1.089 1.089 0 0 1 0-1.547 1.09 1.09 0 0 1 1.548 0l2.236 2.234 2.236-2.234a1.09 1.09 0 0 1 1.548 0c.43.43.43 1.117 0 1.547l-2.236 2.234 2.236 2.235c.43.43.43 1.117 0 1.547-.172.171-.516.343-.774.343s-.516-.086-.774-.343l-2.236-2.235-2.236 2.235c-.172.171-.516.343-.774.343s-.516-.086-.774-.343c-.344-.43-.344-1.118 0-1.547zm12.815-12.29H8.343c-.602 0-1.119.516-1.119 1.118v17.96c0 .602.517 1.118 1.119 1.118h17.975c.602 0 1.118-.516 1.118-1.117V52.336c-.086-.602-.516-1.031-1.118-1.031zM25.2 69.267H9.375V53.453H25.2v15.813zm25.543-17.961H32.768c-.602 0-1.118.515-1.118 1.117v17.96c0 .602.516 1.118 1.118 1.118h17.975c.602 0 1.119-.516 1.119-1.117V52.336c0-.602-.517-1.031-1.119-1.031zm-1.032 17.96h-15.91V53.454h15.824v15.813h.086zM8.085 23.978h42.83c.602 0 1.119-.516 1.119-1.118V7.734c0-.601-.517-1.117-1.119-1.117H8.085c-.602 0-1.119.516-1.119 1.117V22.86c0 .602.517 1.118 1.119 1.118zM9.117 8.852h40.68v12.976H9.117V8.852zm27.607 28.875c0-.602.517-1.118 1.119-1.118h7.912c.602 0 1.118.516 1.118 1.118 0 .601-.516 1.117-1.118 1.117h-7.912a1.138 1.138 0 0 1-1.119-1.117zM57.882 0H1.118C.516 0 0 .516 0 1.117v74.766C0 76.484.516 77 1.118 77h56.764c.602 0 1.118-.516 1.118-1.117V1.117C59 .43 58.484 0 57.882 0zM56.85 74.766H2.15V2.148h54.7v72.618zm-8.6-55.86c0 .602-.517 1.117-1.119 1.117H31.908a1.138 1.138 0 0 1-1.118-1.117c0-.601.516-1.117 1.118-1.117h15.31c.601 0 1.031.516 1.031 1.117zm2.493 8.766H32.768c-.602 0-1.118.515-1.118 1.117V46.75c0 .602.516 1.117 1.118 1.117h17.975c.602 0 1.119-.515 1.119-1.117V28.703c0-.515-.517-1.031-1.119-1.031zm-1.032 17.96h-15.91V29.82h15.824v15.813h.086zM28.468 18.907c0 .602-.516 1.117-1.118 1.117h-1.204a1.138 1.138 0 0 1-1.118-1.117c0-.601.516-1.117 1.118-1.117h1.204c.688 0 1.118.516 1.118 1.117zm-5.59 0c0 .602-.516 1.117-1.119 1.117h-.086a1.138 1.138 0 0 1-1.118-1.117c0-.601.516-1.117 1.118-1.117h.086c.603 0 1.119.516 1.119 1.117z"/>
</svg>
