<svg xmlns="http://www.w3.org/2000/svg" width="133" height="90" viewBox="0 0 133 90">
    <path fill="#F5F1FA" fill-rule="evenodd" d="M57.563 82.128c-.007.063.138-.046.2 0 .06.046.091-.03.152 0 .062.03.169.165.153-.024-.015-.19-.183-.235-.122-.403.061-.168-.013-.168.124-.275.136-.106.213-.167.213-.32s-.153-.26-.184-.458c-.03-.198.061-.274.061-.488 0-.214.092-.122 0-.32-.092-.199-.168-.29-.237-.26-.069.03-.115.015-.176.168-.061.153-.138.29-.184.244-.046-.046.015-.046 0-.137a2.563 2.563 0 0 1-.018-.28s-.09-.128-.135 0a.45.45 0 0 1-.123.188s-.199-.14-.199-.245c0-.106.107-.289.184-.365.077-.076.414-.336.414-.336l.18-.149s-.096-.057-.18 0c-.085.058-.292.195-.292.195s-.333.023-.356-.126a3.166 3.166 0 0 1 0-.572 2.092 2.092 0 0 0-.013-.469c-.021-.126-.194-.492-.147-.584.046-.091.16-.263.206-.32.046-.057.092-.16.035-.263-.058-.103-.15-.218-.07-.286.081-.069.208-.115.253-.138.047-.022.219-.251.219-.251s.126.103.126.183-.004.023-.07.171c-.068.15-.148.218-.102.435s.23.366.356.458c.126.091.218.149.241.343.023.195.07.332.023.447-.046.114-.218.228-.057.251.16.023.245.012.245.012s.004.08 0 .114-.073.08-.096.114c-.023.035.023.08.184-.045.16-.126.287-.24.414-.344.126-.102.264-.183.31-.297.046-.115.15-.263.103-.378-.046-.114-.057-.171-.195-.148-.138.022-.265.057-.356 0-.092-.058-.253-.103-.184-.264.069-.16.184-.32.333-.332.15-.011.38-.022.414.046.034.069.103.126.15.126.045 0 .114.114.137-.034.023-.149.126-.4.218-.515.092-.114.115-.092.16-.229.047-.137.024-.08 0-.206-.022-.126-.114-.103-.045-.206s.053.023.073-.149a.816.816 0 0 0-.061-.389c-.023-.046-.15-.022-.15-.126 0-.103.057-.286.104-.32.046-.034.118-.057.11.126-.007.183-.094.252.001.378.095.125.176.297.256.389.08.091.241.148.276.206.034.057.092.194.057.263-.034.068-.919.95-.942 1.03-.023.08-.16.114-.023.08.138-.035 1.15-1.053 1.195-1.099.046-.046.07-.172.058-.263-.012-.092.022-.458.126-.48.103-.024.184-.046.184.125v.275s.207.034.379-.195c.172-.229.218-.389.344-.583.127-.195.207-.366.402-.584.196-.217 1.551-1.774 1.551-1.774s-.011-.194-.057-.206c-.046-.01-.16.058-.241 0-.08-.057-.172-.091-.15-.251.023-.16.023-.206 0-.31a2.403 2.403 0 0 0-.172-.48c-.057-.091-.172-.194-.264-.206-.092-.011-.218 0-.287-.057-.07-.057-.035-.149-.23-.252-.195-.103-.299-.16-.471-.183-.172-.023-.184.149-.38-.149-.195-.297-.344-.503-.401-.755-.058-.252.057-.412.206-.435.15-.022.253-.137.322-.091.07.045.218.023.23.24.011.218.103.492.103.572 0 .08.046.149.046.149s.127.103.115-.034c-.011-.138-.057-.263-.011-.32.046-.058.034-.287.172-.333.138-.045.299.046.299.172s-.023.149-.07.275a.533.533 0 0 0 .012.355c.035.102.058.09.161.114.103.023.276.206.38.309.103.103.172.286.172.286l-.07.034s-.091.034-.022.115c.068.08.057.24.149.32.092.08.15.183.207.194.057.012.137 0 .184.012.046.012 0 .08.068.183l.138.206.173-.046s.092-.057.137-.183c.047-.126.023-.172.138-.355.115-.182.196-.32.265-.446s.195-.274.275-.446c.08-.172.196-.297.184-.39-.011-.09-.184-.4-.276-.503-.092-.103-.149-.114-.137-.183.011-.068.057-.114.057-.183 0-.069-.012-.033 0-.125s.172-.344.172-.344.128-.057.185.252c.057.309.068.343.068.4 0 .057.103.367.103.367s-.023.137.07.08c.091-.058.333-.275.401-.39.07-.114.162-.217.207-.32.046-.103.115-.16.104-.275-.012-.114-.127-.263-.104-.354.023-.092.14-.218.105-.32-.036-.104-.116-.218-.139-.355-.023-.138-.07-.24-.023-.344.046-.103.322-.171.505-.331.184-.16.391-.47.54-.504.15-.034.494-.08.713-.149.218-.068.436-.057.62-.217s.241-.069.264-.275c.023-.206-.011-.732-.057-.995-.046-.264-.15-.412-.127-.573.023-.16.07-.24.035-.411-.035-.172-.023-.16-.138-.264-.115-.103-.276-.137-.345-.32-.069-.183-.057-.275-.126-.343-.069-.069-.287-.16-.287-.16s-.196-.035-.196-.07c0-.033-.057-.09-.034-.125.023-.034.092-.012.092-.08 0-.069.023.034-.058-.172-.08-.206-.344-.297-.298-.595.046-.297.023-1.03.023-1.03s.08.046.137.195c.058.149.184.412.196.63.011.217 0 .308.069.343.069.034.23.08.264.16s.08.515.08.515-.103.057-.046.08c.058.023.127 0 .242 0 .115 0 .172-.035.183.114.012.149.093.298.138.332.047.034.092.091.173.183.08.092.184.114.15.298a.795.795 0 0 0 .091.48c.046.069.08-.023.08.23 0 .25-.046.628 0 .914.046.287-.057.32 0 .435.058.115.058.206.173.275a.786.786 0 0 0 .287.126c.115.023.241.068.437.126.195.057.31.08.379.034s.16.103.16-.149v-.652c0-.149.047-.229 0-.343-.046-.115-.137-.195-.057-.24.08-.046.276-.092.299.08a1.29 1.29 0 0 1 0 .469c-.035.171-.07.057-.035.171.035.115-.069.195.035.115.103-.08.057-.15.149-.24.092-.092.138-.104.195-.184.058-.08.115-.183.104-.286-.012-.103-.115-.251-.218-.354-.104-.103-.219-.115-.207-.287.011-.171-.092-.4.057-.331.15.068.279.103.37.286.09.183.158.263.193.297.035.035.115.057.115-.046 0-.103-.08-.194 0-.343.08-.149.16-.24.299-.297a.749.749 0 0 0 .264-.172c.058-.057.08-.183.172-.126.092.057.161.149.092.252-.069.103-.16.172-.264.355-.104.183-.253.48-.253.48l-.218.515c-.058.137-.104.366-.184.435s-.241.24-.241.24.011.115.183.115c.173 0 .3.103.495-.08a1.93 1.93 0 0 1 .51-.344c.087-.034.5-.057.707-.011.207.046.403.103.517.16.115.057.322.172.471.137.15-.034.276 0 .31-.16.035-.16.07-.458.196-.583.126-.126.322-.23.172-.367-.15-.137-.23-.125-.298-.331-.07-.206-.196-.218-.104-.435.092-.218.264-.39.368-.55.103-.16.275-.297.287-.469.011-.171.057-.354 0-.366-.058-.011-.287.034-.333-.057-.046-.092-.138-.172-.092-.275.046-.103.08-.16.126-.24.046-.08.115-.229.046-.286-.069-.057-.172-.137-.115-.195.058-.057.219-.24.322-.057.103.183.148.332.074.4-.074.07-.361-.034-.154.23.206.263.298.217.39.331.092.115.219.046.126.31-.091.263-.126.228-.23.434-.103.206-.137 0-.195.47-.057.469-.137.514-.068.732.068.217.149.32.206.435.058.114.058.171.092.274.035.103.104.16.115.206.012.046-.011.183.035.252.045.069.034.217.264.263.23.046.563.046.643.103.08.057.184.149.196.263.01.115-.115.218 0 .24.114.023.16.103.252.023.092-.08.196-.217.264-.24.07-.023.414-.069.529-.011.115.057.138.16.253.194.114.035.24.069.402.08.16.012.344 0 .47.035.127.034.15.022.15.16 0 .137-.011.172 0 .297.012.126.012.183-.15.275-.16.091-.711.16-.953.149-.241-.012-.93-.23-1.103-.23-.172 0-.31.115-.62.127-.31.011-.896-.15-1.091-.24-.196-.092-.15-.15-.38-.15s-.942.024-1.022 0c-.08-.022-.954-.045-1.034-.034-.08.012-.505-.251-.505-.251s-.127-.08-.092.011c.034.092.333.263.54.435.206.172.321.366.528.526.207.16.253.24.345.206.092-.034.092-.171.184-.252.091-.08.379-.091.494-.091.115 0 .08-.092.31-.057.23.034.24.068.379.171.138.103.299.206.413.206.115 0 .196-.068.253-.125.058-.058.15-.126.241-.012.092.114.276.16.356.32.081.16.207.252.15.378-.058.126-.046.172-.16.172-.116 0-.185-.092-.219.034-.035.126.023.206-.195.275-.219.068-.954.217-1.092.286-.138.068-.448.137-.505.286-.058.149.092.457.206.469.115.012.391.034.506-.137.115-.172.172-.435.241-.435s.023.023.218.183c.196.16.575.355.69.366.115.011.333-.023.379-.023.046 0 .08.046.16.195.081.149-.01.194.437.343.448.149.655.172.793.137.138-.034.172-.114.23-.034.057.08.195.24.069.263-.127.023-.184-.034-.219.046-.034.08.115.217-.149.206-.264-.011-3.826-.687-3.929-.698-.103-.012-.333-.023-.345-.114-.011-.092-.103-.23-.103-.23s-.058.058-.253.024c-.195-.035-.379-.092-.47-.218-.093-.126-.23-.298-.265-.412-.034-.114-.07-.217-.08-.309-.012-.091-.07-.217-.115-.229-.046-.011-.173-.217-.173-.057s.012.286.058.458c.046.171-.035.412.23.618.264.206.494.297.746.377.253.08.54.15.54.15l4.263.812s.562.091.861.148c.299.058.563.184.816.252.252.069.333.103.528.114.195.012.356-.011.471.012.115.023.345.08.54.103.195.023.253.091.597.115.345.022 1.115.068 1.38.08.264.011.62.022.665.011.046-.011.012-.046.092-.069.08-.022.161-.022.161-.022s-.138-.104-.287-.115c-.15-.011-.16-.023-.241 0-.08.023-.138.046-.241.046-.104 0-.207-.069-.322-.115-.115-.046-.08-.114-.253-.034-.172.08-.23.092-.368.08-.138-.011-.287-.103-.413-.08-.127.023-.046.046-.253.034-.207-.011-.333-.057-.436-.068-.104-.012-.15.011-.31-.046-.162-.057-.403-.127-.449-.144-.046-.016-.034-.12.173-.142.206-.023.551-.035.724-.103.172-.069.114-.195.493-.218.38-.022.655-.091 1.023-.091.368 0 .735.057.884.034.15-.023.265-.149.276-.229.012-.08-.08-.068 0-.16s.161-.172.265-.149c.103.023.126.138.24.138.116 0 .323.011.437-.07.115-.08.23-.422.3-.537.068-.114.08-.446.137-.194.057.251.08.4.08.469 0 .068-.057.08-.08.183s-.115.194-.023.217c.092.023.218-.034.321-.068.104-.035.288-.07.38-.035.092.035.206.046.126.138-.08.091-.16.16-.172.228-.012.07-.012.15.068.126.081-.022.196-.171.253-.194.058-.023.276.423.54.515.265.091.288.114.368.091.08-.023.23-.045.31 0 .08.046.15.102.207.051.057-.05-.023-.142-.058-.21-.034-.07-.005-.184.078-.218.083-.035.198.045.21-.069.011-.114-.07-.194-.104-.229-.034-.034-.172-.149-.069-.229a.546.546 0 0 1 .242-.126c.092-.022.08-.045.137-.137.058-.091.046-.24.15-.148.103.09.138.354.218.411.08.058.23.023.241.126.012.103-.08.149-.16.252-.081.103-.115.218-.07.332.047.114.186.366.231.503.045.138.137.298.08.332-.058.034-.115.069-.07.115.047.045.162.045.265.045.104 0 .276-.023.368.046.092.069.24.137.184.172-.058.034-.23.275-.253.332-.023.057 0 .057.034.309.035.251.012.331-.046.366-.057.034-.54-.275-.586-.275-.045 0-.183-.069-.206 0-.023.069-.058.092-.207.229-.15.137-.46.206-.517.206-.058 0-.15.057-.161.126-.012.069-.058.103-.16.103-.104 0-.219-.012-.311.068s-.368.31-.528.47c-.161.16-.15.251-.265.297a3.635 3.635 0 0 1-.425.138c-.103.022-.16.08-.298-.092-.138-.172-.23-.355-.31-.332-.081.023-.139.034-.127.172.012.137.069.194.023.32-.046.126-.104.252-.345.423-.241.172-.804.424-.953.55-.15.126-.425.366-.506.48-.08.115-.011.115-.207.218-.195.103-.344.103-.379.217a.435.435 0 0 0 .012.24s.138-.022.092.07c-.046.09-.08.125-.173.137-.092.011-.172-.012-.287.034-.115.046-.344.148-.344.148s-.012-.057-.115.16c-.104.218-.035.287-.207.287-.173 0-.218-.149-.345-.034-.126.114-.138.137-.333.331-.195.195-.448.4-.563.504-.115.103-.218.217-.287.286-.07.069-.115.126-.115.172 0 .045.057.114.08.16.024.046.046.023.012.137-.035.115-.103.206-.012.298a.488.488 0 0 0 .357.125c.137 0 .585.023.712.092.126.069.069.16.241.126.173-.034.253-.034.31-.114.058-.08.08-.206.184-.286.104-.08.207-.126.483-.126.275 0 .333-.058.517-.08.183-.024.47.068.746.16.276.091.39.183.62.354.23.172.208.206.518.458.31.252.654.607.792.721.138.114.242.16.31.16.07 0 .127-.114.173 0 .046.115.08.286.172.332.092.046.115.08.196.023.08-.057.195-.149.23-.206.034-.057.034-.137.183-.126a.516.516 0 0 0 .31-.069c.058-.034-.034-.16.173-.057.206.103.16.195.7.47.54.274.448.226.667.49.218.265.367.493.436.654.07.16.127.457.127.64 0 .184.046.401.046.71 0 .309.011.446-.035.618-.046.171-.195.08-.276.229-.08.148-.137.091-.126.595.011.503-.069.595-.011.95.057.354.126.366.08.491-.046.126-.069.206-.126.275-.058.069-.138.08-.207.08-.069 0-.092-.023-.127.08-.034.103-.149.15-.195.138-.046-.012-.092.022-.103.091-.012.069 0 .115-.092.137-.092.024-.207.012-.207.104 0 .091.126.366.483.572.356.206.505.274.666.251.16-.022.436-.106.54.005.103.11.264.259.344.373.081.114.012.138.23.24.218.103.356.023.494.195.138.172.08.355.31.355.23 0 .667.057.759-.057.092-.115-.035-.264.206-.287.242-.023.357.092.506.092.15 0 .195.057.402 0 .207-.057.207-.103.39-.217.184-.115.196-.183.46-.24.264-.058.138-.024.356-.23.219-.206.173-.343.368-.446.195-.103.333-.126.437-.183.103-.057.126-.16.183-.275.058-.114.3-.183.356-.252.058-.068-.068-.022 0-.148.07-.126.437-.64.517-.904.08-.263.138-.366.265-.584.126-.217.103-.274.275-.389.173-.114-.264.149.3-.171.562-.32 1.435-.939 1.676-1.03.242-.092.425-.252.85-.264.426-.011.575.046.701-.148.127-.195.23-.32.425-.298.196.023.23-.023.449.172.218.194.16.229.39.16s.345.012.368-.194c.023-.206-.092-.435 0-.561.092-.126.23-.286.379-.412.15-.126.264-.298.31-.355.046-.057.103-.217.195-.309.092-.091.127-.126.322-.149.195-.022.207-.022.345.046.137.069.218.103.287.057.069-.045.218-.114.103-.217s-.322-.149-.23-.229c.092-.08.403-.206.403-.309 0-.103.023-.126 0-.252-.024-.125.023-.263.137-.434.115-.172.035-.378.483-.481.448-.103.62-.149.862-.137.24.011.137-.08.448 0 .31.08.54.148.712.229.172.08.218 0 .367.24.15.24.161.355.357.389.195.034.344.103.666-.092.322-.194.402-.32.793-.4.39-.08.597.023.815.091.219.069.368.138.517.138.15 0 .356-.058.494-.206.138-.149.23-.378.46-.4.23-.024.482-.07.609-.15.126-.08.275-.194.31-.32.034-.126-.057-.309-.127-.446-.068-.137-.172-.263-.172-.424 0-.16.012-.343 0-.412-.011-.068-.069-.228-.057-.286.011-.057.08-.08.103-.125.023-.046-.023-.184-.092-.31-.069-.125-.184-.228-.069-.251.115-.023.207.023.253.034.046.011.218-.114.241-.252.023-.137-.057-.286 0-.331.058-.046.184-.16.207-.07.023.093.08.195.195.115s.3-.16.38-.24c.08-.08.252-.172.287-.298a.429.429 0 0 0-.127-.4c-.115-.114-.103-.378-.275-.378-.173 0-.265.103-.46.115-.195.011-.172.034-.344 0-.173-.034-.15-.115-.38-.057-.23.057-.402.08-.436.057-.035-.023-.046-.172-.299-.126-.253.046-.253.069-.345.057-.091-.011-.206-.08-.298-.114-.092-.035-.241-.126-.414.034-.172.16-.287.229-.436.229-.15 0-.23-.069-.276 0-.046.069-.011.126-.104.183-.092.057-.24-.011-.206.103.034.114.08.137.046.217-.035.08-.207.08-.219.184-.011.102.104.091.046.182-.057.092-.092.104-.298.16-.207.058-.138.115-.265.138-.126.023.023-.08-.24-.103-.265-.023-.518-.114-.587-.183-.069-.069-.138-.298-.15-.424-.01-.125-.056-.263-.045-.331.011-.069-.046-.195-.23.023-.184.217-.23.263-.23.366 0 .103.046.172-.057.297-.103.126-.23.092-.241.252-.012.16.057.126-.012.275-.069.149 0 .251-.356.423s-.724.366-.942.446c-.218.08-.54.183-.666.15-.127-.035-1.528-1.088-1.632-1.248-.103-.16-1.298-1.462-1.447-1.67-.15-.207-1-1.122-1.16-1.362-.161-.241-.782-1.236-.908-1.488a7.423 7.423 0 0 1-.345-.893c-.069-.217-.356-.629-.436-.835a4.325 4.325 0 0 1-.196-.63 1.837 1.837 0 0 1-.046-.423c0-.16-.034-.4-.068-.412-.035-.011-.138.023-.138.24 0 .218 0 .298-.046.355-.046.058-.173.035-.173.035s-.091-.172-.172-.08a.337.337 0 0 1-.31.103c-.092-.023-.195-.264-.184-.058a.96.96 0 0 0 .172.527c.115.171.196.194.253.252.058.057.103.114.103.148 0 .034.115.103.115.103s.08-.286.15-.332c.069-.045.287-.045.275.08-.011.126.035.23.104.39.069.16.08.24.16.343.081.103.116.045.127.263a3.7 3.7 0 0 1-.023.71c-.035.228-.126.446-.023.457.103.012.218-.217.276-.297.057-.08.069-.092.172.068.104.16.299.424.39.675.093.252.162.435.518.801.356.367.654.63.816.847.16.218.333.412.55.618.22.206.575.687.679.847.103.16.47.618.666.812.195.195.368.218.46.47.091.251.091.217.321.423s.506.309.471.423c-.034.115-.046.206-.206.206a.443.443 0 0 1-.334-.125c-.092-.08-.16-.092-.298-.115-.138-.023-.242-.137-.368-.137s-.264-.023-.264-.023l-.276-.206s-.575.034-.735.011c-.161-.023-.31-.125-.31-.125s-.058-.16-.196-.115c-.138.046.023.069-.333.092-.356.023-.505.045-.494-.012.012-.057.115-.137.184-.252.069-.114.057-.457.057-.457s-.092-.206.07-.275c.16-.069.436-.229.493-.424.058-.194.219-.354.058-.571-.161-.218-.242-.321-.276-.447-.034-.126 0-.229-.195-.355-.196-.125-.288-.137-.333-.274-.046-.137-.288-.275-.357-.298-.069-.023-.011-.023-.264-.069-.253-.045-.448-.08-.414-.114.035-.034-.011-.194-.057-.217-.046-.023-.15.149-.207.125-.057-.022-.195-.09-.16-.16.034-.068.057-.068.16-.148.104-.08.288-.23.127-.252-.161-.023-1.046.4-1.15.435-.102.034-.39.091-.401.023-.012-.069.069-.206.207-.298.138-.091.23-.252.23-.32 0-.069-.012-.16.149-.16.16 0 .287.022.207-.103-.08-.126-.104-.115-.15-.206-.046-.092-.046-.344-.16-.287-.116.058 0 .15-.22.23-.217.08-.263.068-.378.09-.115.024-.207-.102-.138-.182.069-.08.057-.114.218-.206.161-.092.127-.103.345-.24.218-.138.345-.252.23-.264-.115-.011-.241-.057-.38-.011-.137.046-.16-.035-.275.126-.115.16-.494.55-.597.732-.104.183-.437.435-.586.55-.15.114-.402.205-.449.171-.045-.034-.137-.217.047-.32.183-.103.287-.183.39-.252.103-.069.16-.069.16-.218 0-.148.012-.308.139-.423.126-.114.16-.046.299-.286.137-.24.333-.16.264-.366-.07-.206-.264-.538-.425-.526-.161.011-.299-.092-.334.102-.034.195-.011.264-.045.39-.035.126-.127.091-.173.228-.046.138-.011.195-.103.263-.092.069-.287.08-.264-.091.023-.172 0-.435-.058-.332-.057.103.138.16-.115.217-.253.058-.425.023-.436-.068-.012-.091.115-.091.103-.195-.011-.102 0-.102-.15-.24-.149-.137-.286-.24-.263-.309.023-.069.16-.137.16-.137s-.057-.252-.172-.286c-.115-.035-.15-.092-.207.034-.057.126-.069.183-.195.206-.126.023-.345.011-.299-.137.046-.149-.011-.172-.103-.149-.092.023-.057.091-.092.206-.035.114.035.252-.092.183-.126-.069-.115-.08-.195-.217-.08-.138-.023-.183-.264-.195a1.809 1.809 0 0 1-.483-.103s-.057.023.103.115c.161.091.288.137.403.274.114.137.252.183.264.343.011.16.069.286-.035.344-.103.057-.057.229-.275.114-.219-.114-.437-.126-.31-.217.126-.092.23-.115.172-.23-.058-.113-.035-.331-.23-.4-.195-.068-.471-.206-.574-.308a.564.564 0 0 1-.15-.31c0-.045-.16-.103-.241-.091-.08.011-.218.011-.207.171.012.16.069.23-.057.252-.127.023-.23 0-.265 0-.034 0-.069.069-.16.046-.092-.023-.138.012-.264-.183-.127-.195-.07-.206-.127-.195-.058.012-.287 0-.322-.022-.034-.023-.057-.184-.092-.218-.034-.034-.022.057.07-.057.091-.114.057-.057.149-.149.092-.091.172-.069.092-.183-.08-.114-.161-.183-.219-.172-.057.012-.103-.114-.16-.091-.058.023-.092.126-.07.229.023.103.07.206-.045.229-.115.023-.15 0-.207 0a2.72 2.72 0 0 0-.253.034s-.08-.115-.115-.195c-.034-.08-.069-.137-.126-.102-.058.034-.253.034-.207-.058.046-.091.058-.217.138-.252.08-.034.115-.011.115-.148 0-.138-.07-.252-.012-.298.058-.045.127-.229.265-.206.137.023.252.172.39.183.138.012.115.023.241-.046.127-.068.173-.091.276-.034.104.058.241.023.241.023s.046-.286.23-.046.46.572.598.756c.137.183.195.286.287.251.092-.034.172-.149.218-.16.046-.011.104.023.172.069a.25.25 0 0 0 .253.011c.08-.045.172-.023.138-.126-.034-.103-.104-.274-.104-.389 0-.114-.091-.32.081-.194s.195.183.241.286c.046.103.023.16.08.172.058.011.127.045.127-.104 0-.148.034-.126-.092-.263s-.471-.423-.46-.492c.012-.068.127-.16.058-.229-.069-.068-.218-.103-.138-.171.08-.069.207-.172.207-.172s0-.252.138-.114c.138.137.218.331.264.492.046.16.207.377.207.377s.241.103.195.264c-.046.16-.092.125-.184.331-.092.206-.16.263-.218.47-.057.205-.218.377-.034.377.183 0 .206-.091.275-.091.07 0 .138.068.184.08.046.011.172.022.172-.138a4.6 4.6 0 0 0-.022-.446c-.012-.103.057-.149.057-.149s.115.16.15.275c.034.115-.093.126.034.115.126-.012.15-.172.15-.172l-.036-.286s.023-.172-.022-.24c-.046-.07-.138-.058-.104-.207.035-.148.161-.068.23-.022.069.045.057.125.184.034.126-.092.057-.172.23-.149.172.023.011.195.091.24.081.046.184.115.334.206.15.092.126.08.264.092.138.011.08-.012.23.011.149.023.23-.171.23-.171s-.127-.367.022-.4a.199.199 0 0 1 .219.09l.218.436s-.035.366-.138.48l-.103.115s-.115-.287-.15-.287c-.034 0-.138.024-.138.024l-.091.034s-.242.068-.276.229c-.035.16-.023.446-.023.446s-.264.011-.31.103c-.046.091-.058.309-.058.309s.161.034.276.046c.115.011.172-.046.184.137a.753.753 0 0 0 .126.343s.39.069.529-.217c.137-.286.252-.4.333-.607.08-.206.103-.297.16-.595.058-.297-.068-.664.127-.8.195-.138.827-.207 1.091-.218.265-.011.15-.183.334-.366.183-.183.551-.424.792-.595.241-.172.31-.355.517-.378.207-.023.195.023.276-.034.08-.057.207-.39.31-.504.103-.114.172-.24.138-.286-.035-.046-.115.046-.15-.057-.034-.103-.126-.252-.045-.332.08-.08.103-.217.126-.275.023-.057 0-.297.058-.205.057.09.126.457.16.572.035.114.15.206.23.103.08-.103.138-.264.172-.344.035-.08.092-.183.092-.183s.058-.194-.023-.343c-.08-.149-.321-.366-.321-.458 0-.091-.127-.103 0-.091.126.011.39.171.482.274.092.103.219.195.276.32.057.127.08.195.046.287-.035.091-.115.126-.08.263.034.137-.023.229.137.217.161-.011.253-.022.368-.022.115 0 .333-.08.264.045-.069.126-.16.172-.253.355-.091.183-.149.446-.149.446s.023.057.103-.068c.08-.126 1.16-1.774 1.16-1.774l-.114-.034s-.333.435-.483.526c-.149.092-.218.206-.264.069-.046-.138-.299-.504-.367-.721a4.02 4.02 0 0 1-.161-.87c-.012-.263-.012-.64-.046-.812-.035-.172-.08-.32-.08-.447 0-.126-.093-.366 0-.515.091-.148.114-.32.206-.137.092.183.276.458.264.618-.011.16-.126.137-.115.32.012.184.127.55.219.824.092.275.092.458.31.641s.276.252.39.23c.115-.024.127.068.184-.07.058-.137.012-.217.104-.228.092-.012.138-.012.138.114s-.184.08-.046.194c.137.115.103.15.287.035.184-.115.528-.48.678-.618.149-.137.287-.458.494-.652.206-.195.551-.4.677-.538.127-.138.288-.24.288-.24l.367-.355.759-.355.54-.023.884-.172s.38-.091.46.15l.08.24.138.091.16-.103.07.115s.08.08.103.011c.023-.069.035-.149.138-.343.103-.195.138-.424.368-.71.23-.286.425-.766.746-.778.322-.011.219.034.448.023.23-.011.08-.046.529-.149.448-.103.93-.286 1.126-.091.195.194.379.469.413.549.035.08.07.023.046.172-.023.148-.08.274-.126.32-.046.046-.058.034-.115.046-.057.011-.184.023-.172.126.011.103.034.16.126.148.092-.011.138.035.195-.103.058-.137.517-1.178.563-1.281a.604.604 0 0 0 .07-.31c-.012-.102-.146-.25.001-.308.148-.057.113-.011.228-.115.115-.103-.035-.32.333-.48.368-.16.862-.527 1.011-.595.15-.069.597-.378.7-.458.104-.08.22-.183.3-.183.08 0 .39.183.413.229.023.046.126.126.126.206v.172s.012.08.092-.058c.08-.137.08-.194.173-.251.092-.058.195-.092.218-.206.023-.115-.103-.115 0-.23.103-.114 1.356-1.682 1.482-1.727.126-.046.379-.08.712-.08.333 0 .414-.023.506-.103.092-.08.138-.126.264-.126s.207 0 .31-.115c.104-.114.138-.24.287-.24.15 0 .414.103.46.115.046.011.103-.012.207-.035.103-.023.379-.011.551-.08.172-.068.172-.16.276-.172.103-.011.264.08.333.16s.126.058.103.15c-.023.09-.068.045-.046.148.023.103.265.286.334.16.069-.125.08-.229.252-.377.173-.149.3-.263.357-.366.057-.103.103-.195.057-.287-.046-.091-.16-.022-.115-.228.046-.206.07-.515.264-.744.196-.23.345-.504.345-.664 0-.16-.092-.4-.207-.355-.115.046-.574.287-.666.15-.092-.138.08-.825.172-1.03.092-.207.173-.619.241-.859.07-.24.207-1.876.287-1.91.081-.035.184-.07.334-.092.15-.023.264-.206.448-.31.184-.102 1.206-.091 1.298-.102.092-.012.012-.332.172-.595.161-.264.241-.492.414-.573.172-.08.414-.057.333-.354-.08-.298-.333-1.099-.184-1.202.15-.103.161-.206.333-.149.173.058.38.023.483-.091.103-.115.678-.55 1.413-.55s1.895-.343 1.976-.331c.08.011-.034.14.299.178.333.04.643-.064.85-.075.207-.012.678-.103.885-.034.206.068.608.14.758.11.149-.03.482-.133.253-.374-.23-.24-.345-.172-.414-.446-.069-.275-.253-1.098-.172-1.156.08-.057.24-.137.448-.263.206-.126.294-1.156.216-1.453-.078-.298-.297-.39-.32-.687-.023-.297-.103-.4-.034-.583.069-.183.103-.493.08-.71-.023-.217.058-.56-.046-.698-.103-.137-.356-.183-.402-.435-.046-.252-.241-.686-.195-.915.046-.229-.31-.492-.402-.47-.092.024-.253.195-.437-.08-.184-.274-.437-.48-.39-.96.046-.481-.058-1.305.023-1.397.08-.091.172-.32.39-.32.218 0 1.24.092 1.321 0 .08-.092.161-.538.046-.595-.115-.057-.482-.023-1-.16-.516-.138-.631-.058-.689-.332-.057-.275-.689-.675-.689-.835 0-.16.103-.653.15-.676.046-.023.333.172.574 0 .241-.171.551-.4.643-.48.092-.08.207-.263.265-.48.057-.218-.058-.458.218-.642.275-.183.793-.4.85-.48.057-.08.15-.058 0-.23-.15-.17-.241-.125-.241-.434s.114-.881-.012-1.087c-.126-.206-.815-1.018-.815-1.213 0-.195.034-.435.195-.595.16-.16.448-.355.425-.55-.023-.194-.172-.457-.276-.457-.103 0-.632-.103-.7 0-.07.103-.437.64-.587.79-.149.148-.965.24-1.114.171-.15-.068-.551-.56-.839-.515-.287.046-.517.023-.597-.103-.08-.126-.39-.915-.666-.846-.276.068-1.195.297-1.367.16-.173-.138-.506-.32-.632-.412-.127-.092-.253-1.007-.345-1.019-.092-.011-.425-.057-.448.115-.023.171-.23.457-.368.492-.138.034-1.263-.057-1.263-.057s-.253-.458-.38-.492c-.126-.035-.447-.223-.505-.072-.057.152.058.266-.23.209-.287-.057-.735-.248-.723-.267.011-.02.057-.546.057-.546s-.184-.24-.241-.229c-.058.012-.965.138-1.184.16-.218.024-.275.058-.413-.022-.138-.08-.287-.264-.402-.138-.115.126-.264.298-.356.172-.092-.126-.345-.663-.414-.663s-.597-.092-.597 0c0 .091.149 1.201.149 1.247 0 .046-.218.652-.551.618-.334-.035-1.655-1.03-1.827-1.236-.172-.206-1-.515-1.23-.618-.23-.103-.298-.023-.298-.217 0-.195-.104-.31-.322-.47-.218-.16-.69-.297-.712-.435-.023-.137-.31-.96-.414-1.052-.103-.092-.815-.492-.804-.824.012-.332-.023-.687-.103-.687-.08 0-.242-.046-.414 0s-.241.126-.47.332a52.9 52.9 0 0 0-1.322 1.259c-.092.103-.643-.011-.953-.035-.31-.022-.356 0-.391.08-.035.08-.092.275-.471.275-.38 0-.62-.149-.632.057-.011.206.035.47-.011.63-.046.16 0 .275-.402.32-.403.046-1.15.103-1.23.035-.08-.07-.402-.332-.402-.332l-1.55.046-1.184-1.19-2.62.205s-.401.573-.47.595c-.07.023-.46.046-.759-.126-.298-.171-.448-.102-.448-.297 0-.194.138-.217-.115-.332-.253-.114-.666-.137-.677-.32a5.006 5.006 0 0 0-.092-.71c-.046-.183-.058-.43-.161-.512-.104-.083-.219-.346-.15-.403.07-.057.092-.08.31-.137.219-.058.345-.24.345-.24s-.057-.71-.08-.767c-.023-.058-.276-.046-.333-.184-.058-.137-.161-.549-.253-.858a2.074 2.074 0 0 0-.39-.698c-.127-.16-.391-.354-.357-.446.035-.092.184-.286.253-.39.069-.102.241-.285.184-.434-.058-.149-.207-.229-.356-.252-.15-.023-.242-.091-.356-.08-.115.012-.322.206-.46.126-.138-.08-.666-.275-.735-.538-.07-.263-.104-.583-.138-.732-.035-.149-.138-.515-.276-.55-.138-.034-.126-.228-.252-.057-.127.172-.127.458-.391.367-.265-.092-.506-.286-.598-.183-.092.103-.838.698-.907.743-.07.046-.322-.057-.437-.022-.114.034-.184.08-.241.057-.057-.023-.184-.023-.16-.275.022-.252.091-.4-.081-.412-.173-.011-.758-.08-.93.057-.173.138-.288.286-.506.24-.218-.045-.586-.194-.666-.08-.081.115-.161.252-.345.287-.184.034-.529.148-.575-.046-.046-.195-.15-.343-.011-.504.138-.16.218-.171.275-.366.058-.195.173-.47.023-.56-.149-.092-.551-.287-.551-.332 0-.046 0-.23.115-.31.115-.08.058-.228.035-.32-.024-.091.011-.686.011-.824 0-.137-.172-.366-.253-.538-.08-.171-.195-.251-.31-.343A4.92 4.92 0 0 0 87 8.271c-.184-.114-.38-.217-.345-.343.035-.126.115-.286.288-.275.172.012.195-.011.333-.068.138-.057.206-.07.321-.183.115-.115.046-.218.23-.172.184.046.483.149.563.126.08-.023.276-.045.322-.137.046-.092.252-.321.184-.516a5.105 5.105 0 0 0-.276-.64c-.07-.115-.414-.412-.655-.561-.241-.149-.368-.183-.46-.435-.091-.252-.068-.309-.206-.458-.138-.148-.345-.263-.529-.423-.184-.16-.505-.217-.505-.595s.023-.4.057-.572c.034-.172-.011-.48-.08-.698-.07-.217-.092-.275-.15-.423-.057-.15.023-.184-.172-.275-.195-.092-.218-.172-.368-.206-.149-.035-.264.091-.333-.092S84.863.81 84.863.81s-.23-.045-.276-.137c-.046-.091-.195-.492-.356-.56a1.536 1.536 0 0 0-.517-.104.988.988 0 0 0-.494.172c-.138.103-.402.229-.54.309-.137.08-.252.137-.413.195-.161.057-.483.068-.517.057-.035-.012-.115.011-.08-.08.034-.092.149-.195.045-.344-.103-.148-.425-.137-.666-.091-.241.046-.414 0-.414 0S80.2.02 80.13.009c-.069-.011-.184-.034-.276.092-.092.126-.23.297-.367.435-.138.137-.368.24-.61.492-.24.252-.482.377-.654.4-.172.023-.39-.137-.517-.137-.126 0-.253-.069-.31.091-.058.16-.104.252-.276.275-.172.023-.333.252-.724-.011-.39-.264-.356-.39-.586-.527-.23-.137-.379-.206-.643-.171-.264.034-.506-.023-.643.068-.138.092-.334.15-.368.298-.034.149-.069.366.023.48.092.115.16.412.057.447-.103.034-.425.103-.287.263.138.16.31.149.184.309s-.218.24-.276.469c-.057.229-.184.424-.184.424l-.344.148s-.092.206-.299.298c-.207.091-.15.114-.402.103-.253-.012-.77.194-.953.103-.184-.092-.196-.355-.414-.378-.219-.023-.345-.08-.7.012-.357.091-.506.148-.644.148s-.126-.091-.529-.091c-.402 0-.678-.012-.873.011-.195.023-.46-.183-.46-.183l-.482-.183-.299.137.012.458s.16.424.138.538c-.023.114-.069.355-.288.137-.218-.217-.339-.343-.554-.355-.215-.011-.364-.091-.364-.091s-.403-.275-.586-.252c-.184.023-.403.035-.563.229-.161.194-.173.103-.357.424-.183.32-.39.56-.54.835-.149.274-.022.423-.356.538-.333.114-.712.114-.838.274-.126.16.08.24-.207.332-.287.092-.184.24-.253.39-.069.148-.207.09-.24.205-.035.115.056.275-.07.447-.126.171-.195.102-.241.308-.046.206-.046.367-.07.492-.022.126-.102.115-.183.23-.08.114.023.308-.023.423-.046.114-.218.103-.276.286-.057.183-.241.263-.08.457.16.195.276.16.218.367-.057.206.138.389.184.434.046.046.058.23.058.367 0 .137.01.183.08.274.069.092.115.115.207.286.092.172.287.447.241.538-.046.092-.104.183-.104.23 0 .045.07.136.047.274-.023.137-.138.045-.184.263-.046.217.08.252-.092.355-.173.102-.506.194-.506.194s-.62-.274-.712-.366c-.092-.092-.517-.458-.54-.572-.023-.115.012-.286-.069-.48-.08-.195-.138-.333-.241-.447-.103-.115-.517-.515-.666-.515-.15 0-.253.206-.437.263-.184.057-.735-.286-.896-.229-.16.058-.724.676-.804.744-.08.069-.38.115-.448.034-.07-.08-.425-.64-.644-.686-.218-.046-.47.263-.574.309-.103.046-.38.046-.483.069-.103.022-.275.034-.275.16s-.104.503-.173.606c-.068.103-.206.23-.321.137-.115-.091-.196-.194-.276-.114-.08.08-.38.183-.437.183-.057 0-.356 0-.47-.286-.115-.286-.483-.858-.426-.938.058-.08.265-.424.253-.492-.011-.069-.173-.092-.259-.206-.086-.115-.246-.561-.292-.664-.046-.103-.495-.114-.678-.057-.184.057-.39.103-.448.252-.058.148-.07.32-.15.412-.08.091-.264.068-.333.08-.069.011-.15-.138-.299-.012s-.585.298-.62.4c-.034.104-.126.355-.126.55 0 .195-.023.48-.08.572-.058.092-.08.378-.357.126-.275-.252-.264-.206-.436-.32-.173-.115-.287-.275-.299-.424a2.673 2.673 0 0 1 0-.435c.012-.194.126-.526-.126-.537-.253-.012-.425-.023-.517 0-.092.022-.276-.16-.425-.172-.15-.012-.38.046-.425.091-.046.046-.23.412-.529.39-.299-.023-.425-.653-.528-.721-.104-.069-.207-.15-.161-.263.046-.115 0-.55-.161-.527a1.07 1.07 0 0 0-.528.206 3.072 3.072 0 0 0-.483.423c-.126.138-.058.126-.173.286-.114.16-.172.39-.355.367-.184-.023-.448-.115-.575-.046-.126.068-.195.137-.253.046-.057-.092-.206-.4-.206-.4l-.334.01V11.258s-.15.286-.413.458c-.264.171-.368.469-.506.366-.138-.103-.31-.126-.287-.344.023-.217.115-.331.16-.491.047-.16.139-.287-.022-.447-.16-.16-.299-.297-.448-.309-.15-.011-.23-.011-.333-.057-.104-.046-.299-.24-.368-.355-.069-.114-.287-.171-.448-.091a.654.654 0 0 0-.333.435c-.046.194-.299.217-.437.251-.137.035-.494.08-.586.046-.091-.034-.046-.172 0-.229a.614.614 0 0 0 .115-.251c0-.058-.048-.298-.168-.321-.119-.023-.418-.149-.418-.32 0-.172.127-.561 0-.687-.126-.126-.172-.366-.379-.263-.207.103-.482.298-.632.32-.149.023-.574-.046-.723-.046-.15 0-1.31-.446-1.46-.56-.149-.115-.01-.183-.321-.183-.31 0-.85.046-1.091.034-.242-.011-.563-.046-.724-.16-.161-.114-.15-.023-.241-.206-.092-.183-.127-.424-.31-.424-.184 0-.288-.022-.472.092-.183.114-.24.194-.448.183-.206-.011-.55.023-.758-.114-.207-.138-.31-.378-.368-.515-.057-.137-.091-.092-.057-.252.035-.16.214-.263-.014-.275-.227-.011-.652-.091-.721-.08-.07.012-.253.092-.402.138-.15.045-.644.091-.85.091-.207 0-.184-.057-.368-.011s-.54 0-.965-.012c-.425-.011-.483-.114-.678-.194a.725.725 0 0 0-.425-.035c-.046.012-.218.15-.39.069a41.71 41.71 0 0 1-.943-.492s-.448-.08-.505-.023c-.058.057-.23.298-.494.423-.264.126-.839.286-.839.286s-.54.012-.861-.091c-.322-.103-.495-.206-.586-.183-.092.023-.586.378-.667.446-.08.069-.436.023-.77.034-.333.012-.884-.182-1.102-.206-.218-.022-.425-.045-.529 0-.103.046-.39.16-.425.264a4.18 4.18 0 0 0-.126.583c-.023.184.115.481.184.607.069.126.253.332.126.469-.126.137-.46.366-.793.39-.333.022-.654.056-.884.137-.23.08-.552.182-.701.251-.15.069-.368.355-.505.47-.138.114-.265.182-.437.102s-.241 0-.287-.171c-.046-.172 0-.298-.219-.298-.218 0-.586-.046-.631 0-.046.046-.023.035-.265.217-.24.184-.39.618-.47.687-.081.069-.242.195-.31.298-.07.103-.196.137-.104.217.092.08.103.103.092.24-.012.138.046.07.138.206.091.138.011.16.057.366s.195.104.241.355c.046.252-.034.607-.103.756-.07.148-.161.24-.138.457.023.218.046.32.172.47.127.148.173.491.368.732.195.24.46.32.574.64.115.32.092.55.161.756.069.206.253.229.31.503.058.275-.011.47.138.641.15.172.494.252.494.526 0 .275.08.32.276.47.195.148.885.549.804.697-.08.15-1.183.115-1.24.252-.058.138.103.733.183.881.08.15.62 1.076.54 1.26-.08.182-.023.297-.16.526-.139.228-.22.56-.3.835-.08.274-.068.366-.275.423-.207.057-.39.069-.793.138-.402.068-.632 0-.804.068-.172.069-.15.035-.299.252s-3.699 3.696-3.86 3.88c-.16.182-2.148 2.723-2.298 2.894-.149.172-.287.515-.516.687-.23.172-.563.572-.782.755-.218.183-.252.034-.287.263-.034.23-.057.39-.126.458-.07.069-.173.103-.184.343-.012.24.253.47.253.653 0 .183.046.526.046.778 0 .251-.207 1.647-.207 1.647s-.185.252-.092.332c.092.08.195.012.172.183-.023.172-.011.344-.011.344s.126.091.092.228c-.035.138.218.367.218.367s.54.412.643.537c.104.126.39.367.173.504-.218.137-.494.286-.759.046-.264-.24-.884-.618-1.068-.698-.184-.08-.23-.058-.299.057-.069.114-.425.572-.735.812-.31.24-.356.538-.471.687-.115.149-.241.126-.39.355-.15.229-.31.332-.196.652.115.32.138.55.092.732-.046.183-.15.08-.207.32-.057.241 0 .539-.115.619-.114.08-.321.24-.425.274-.103.035-.172-.16-.356 0s-.563.721-.666.95c-.103.229-.196.515-.207.72a4.162 4.162 0 0 1-.103.642c-.035.137-.023.366 0 .412.023.046.114.08.298.023.184-.058.552-.16.598.057.046.217-.023.32.08.423.104.103.138.263.218.572.08.31-.126.252.207.481.333.229.93.504 1.08.675.15.172.551 1.442.862 1.568.31.126.666.068.884.114.219.046.529.31.529.492 0 .183.103.447.172.48.069.035.126.173.287.23.161.057.207-.023.31-.092.104-.068.23-.137.403-.045.172.09.298.102.436.01.138-.09.575-.812.747-.915.172-.102.528-.011.586-.022.057-.012.299-.218.39.057.092.274-.16.32.288.606.448.286 1.723.916 1.884.927.16.012.264-.046.54-.137.275-.092.494.08.643.091.15.012.494-.114.632-.126.138-.011.138.07.31.252.172.183.264.206.517.195.253-.012.207.057.39.08.185.023.081-.217.426-.115.344.104.896.641 1.206.756.31.114.586.16.747 0 .16-.16.138-.264.46-.23.32.035.562-.01.562-.01s.632-.23.85-.218c.219.011.471-.057.678.229.207.286.322.538.586.8.264.264.712.367.781.413.07.046.276.32.39.549.116.229.391.343.472.526.08.184.16.298.367.275.207-.023.563-.046.759-.114.195-.07.39-.412.551-.4.161.01.356.01.517-.127.161-.137.345-.412.471-.457.127-.046.46-.023.609-.172.15-.149-.115-.4.126-.412.242-.012.586.057.759 0 .172-.057.551-.252.689-.252.138 0 .241.057.436.035.196-.023.518-.218.518-.218s.551.183.873.149c.321-.035 1.01-.424 1.183-.424.172 0 .54.172.77.103.23-.068.23-.366.666-.366.437 0 .793.069.919-.103.126-.171.954-2.185 1.034-2.231.08-.046 1.55-.458 1.7-.504.15-.045.276-.091.483-.217.207-.126.264-.378.425-.4.16-.023.207-.08.333-.138.126-.057.126-.297.126-.297l.012-.435.023-.32s.528-.138.827-.104c.299.035.287-.011.322.195.034.206-.104.378.218.355.322-.023.551.091.643-.103.092-.195.08-.332.173-.378.092-.046.344 0 .413.092.07.091.242.24.368.229.126-.012.138-.16.298-.115.162.046.3.218.426.183.126-.034.206.057.379-.274.172-.332.344-.63.597-.538.253.091.448.228.552.16.103-.069.137-.218.298-.32.161-.103.598-.353.724-.28.126.074.207.234.287.302.08.07 1.046 0 1.126.058.08.057.402.354.598.572.195.217.172.469.402.618.23.148.379.103.494.217.114.115.482.229.562.252.08.023.219-.046.23.24.012.286-.08.64.253.652.333.012.413-.229.413-.229s.345.481.506.458c.161-.023.551-.354.839-.297.287.057.46.343.24.457-.217.115-.596.206-.516.492.08.287.184.458.356.32.172-.136.16-.548.38-.503.217.046.172.115.252.481.08.366.138.63.356.526.218-.103.172-.171.242-.366.068-.194-.035-.423.31-.435.344-.011.448-.034.666.012.218.046.528-.149.678.023.15.171.39.263.586.217.195-.046.448-.091.31.206-.138.298.16 1.419.23 1.476.068.057.482.149.482.149l.38.057s.022.046.183.183c.16.138.368.08.46-.137.092-.218 0-.355.207-.343.206.011.493.114.505.263.011.149.011.355.08.389.07.034.184.08.276.172.092.091.345.068.264.251-.08.183-.287.275-.31.424-.023.149.15.297.23.354.08.058.253.744.057.824-.195.08-.321.218-.218.39.103.171.115.171 0 .389-.115.217-.172.331-.08.457.092.126-.115.252-.127.344-.011.091.356.08.126.286-.23.206-.608.114-.597.297a.512.512 0 0 0 .253.412c.138.08.241 0 .276.229.034.229.218.56.551.606.333.046.31-.148.471-.011.161.137 0 .171.127.47.126.297.356.205.39.331.035.126-.126.412.092.583.218.172.47.344.574.16.104-.182.104-.617.253-.652.15-.034.38-.171.448.24.07.413.195.653.104.836-.092.183-.265.092-.207.366.057.275.149.492.126.801-.023.31-.367.263-.253.504.115.24.46.274.495.274.034 0 .355.264.252.424-.103.16-.276.263-.276.515s-.069.32.115.412c.184.091.207.137.38.252.172.114.23.034.447.08.219.045.219.011.276.206.057.194-.023.354.253.331.276-.022.62-.171.735 0 .115.172.138.206.253.275.115.069.436-.046.46.137.023.183.057.962.057.962l.057.537s.173.435.173.573c0 .137-.07.48-.07.48l.265.4s-.057.115-.034.321c.023.206.23.206.23.412s.126.39.263.446c.138.057.265-.034.575.115.31.148 1.01.617 1 .71-.012.09-.38-.012-.61 0-.23.01-.264-.035-.482-.047-.218-.011-.276.012-.735.012-.46 0-.529-.16-.747-.023-.218.137-.057.195-.333.286-.276.091-.322.149-.471-.011-.15-.16-.035-.275-.138-.367-.103-.091-.264-.16-.264-.16s-.15-.595-.276-.378c-.126.218-.195.412-.195.412s-.242-.217-.345 0c-.103.218-.023.39-.115.55-.092.16-.39.274-.505.091-.115-.183-.46-.572-.46-.572l-.413-.194-.184-.47s-.241-.125-.264.15c-.023.274.091.48-.138.445-.23-.034-.276-.011-.31-.24-.035-.229-.196-.583-.265-.366-.069.218-.069.32-.092.48-.023.16-.172.207-.275.287-.104.08-.127.24-.253.297-.126.057-.345.126-.253-.229.092-.354.092-.469.172-.652.08-.183.115-.366 0-.492s-.103-.526-.333-.297c-.23.228-.23.331-.344.331-.115 0-.184-.229-.506-.068-.321.16-.241.171-.39.297-.15.126-.426-.114-.357.183.07.298-.183.298-.252.332-.07.034-.173-.091-.08.275.091.366.057.457.137.686.08.23.046.79.092.973.046.183.15.16.448.4.299.241.62.138.356.55-.264.412-.413.595-.46.824-.045.228.185.618.196.709.012.092.012.4-.207.504-.218.102-.712.114-1.103.24-.39.126-.528-.172-.563.252-.034.423-.08.63.023.915.104.286.345.527.058.527s-.529.102-.529.24c0 .137-.046.286-.275.343-.23.057-.345.172-.368.31-.023.136-.069.377-.218.262-.15-.114-.529-.091-.529-.091s-.379-.092-.379.263.035.4.241.538c.207.137.345.309.322.515-.023.206-.184.263-.172.435.011.171-.195.057-.242.24-.046.183 0 .286-.046.435-.045.149-.172.309-.516.194-.345-.114-1.046-.412-1.16-.275-.116.138-.127.172-.185.287-.057.114-.183.091-.115.297.07.206.127.16.161.412.035.252.012.206.161.538.15.332.115.435.356.744.242.309.54.549.793.606.253.057.54.252.54.252s.092.412.39.446c.3.035.908.138 1.195.138.288 0 .552-.023.678-.184.127-.16.219-.274.07-.411-.15-.138-.369-.31-.127-.332.24-.023.276.057.333-.092.057-.149-.035-.412.126-.126s.736.47.805.355c.068-.115.126-.32.23-.435.103-.114.08-.171.379-.16.298.011.344.103.493-.069.15-.171.15-.206.322-.24a.912.912 0 0 0 .436-.24c.127-.115.403-.39.759-.39s.586-.045 1.01-.01c.426.034.736 0 1.023.331.287.332.494.195.644.595.149.4.337.889.306 1.148"/>
</svg>
