<?xml version="1.0" encoding="utf-8"?>
<!-- Generator: Adobe Illustrator 21.1.0, SVG Export Plug-In . SVG Version: 6.00 Build 0)  -->
<svg version="1.1" id="Слой_1" xmlns="http://www.w3.org/2000/svg" xmlns:xlink="http://www.w3.org/1999/xlink" x="0px" y="0px"
	 viewBox="0 0 538.5 277.5" style="enable-background:new 0 0 538.5 277.5;" xml:space="preserve">
<style type="text/css">
	.st0{fill:#FC1D2C;}
	.st1{fill:#FEDD33;}
	.st2{fill:#1CB743;}
	.st3{fill:#24C2F3;}
	.st4{fill:#FFFFFF;}
	.st5{fill:#1F191A;}
</style>
<g>
	<path class="st0" d="M140.8,191.2L140.8,191.2c-6.1-6.1-6.1-16,0-22.1l81.3-81.3c6.1-6.1,16-6.1,22.1,0l0,0c6.1,6.1,6.1,16,0,22.1
		l-81.3,81.3C156.7,197.3,146.9,197.3,140.8,191.2z"/>
	<path class="st1" d="M180.4,191.2L180.4,191.2c-6.1-6.1-6.1-16,0-22.1l81.3-81.3c6.1-6.1,16-6.1,22.1,0l0,0c6.1,6.1,6.1,16,0,22.1
		l-81.3,81.3C196.4,197.3,186.5,197.3,180.4,191.2z"/>
	<path class="st2" d="M220.9,191.2L220.9,191.2c-6.1-6.1-6.1-16,0-22.1l81.3-81.3c6.1-6.1,16-6.1,22.1,0l0,0c6.1,6.1,6.1,16,0,22.1
		L243,191.2C236.9,197.3,227,197.3,220.9,191.2z"/>
	<path class="st3" d="M259.8,191.2L259.8,191.2c-6.1-6.1-6.1-16,0-22.1l81.3-81.3c6.1-6.1,16-6.1,22.1,0l0,0c6.1,6.1,6.1,16,0,22.1
		l-81.3,81.3C275.7,197.3,265.9,197.3,259.8,191.2z"/>
	<path class="st4" d="M438.5,138.2l-6,0.6c-1.1,0.1-2.4,0.2-3.4,0.3v-5.2h7.8v-20.4H429V95.6l-25.1,9.3v8.6h-1.7v-1h-1.3
		c1.1-2,1.7-4.2,1.7-6.6l0-0.1c-0.2-7.5-5.6-12.9-13-12.9c-3.7,0-7.1,1.4-9.5,4c-2.3,2.4-3.5,5.6-3.4,9c0,2.4,0.6,4.6,1.7,6.6H377
		h-42.3v8.3c-4.5-5.7-11.5-9.1-19.8-9.1c-11.4,0-20.2,5.9-23.9,15.1c-1.3-3.8-3.3-6.6-5-8.4c-4-4.3-9.5-6.7-15.2-6.7
		c-2.2,0-4.3,0.3-6.2,0.8h-23.1l0.3,7.3c-3.4-5.1-8.9-8.1-15.8-8.1c-4,0-7.4,0.9-10.7,2.7c-0.2,0.1-0.4,0.2-0.6,0.4
		c-3-2-6.7-3.1-10.7-3.1c-2.1,0-4.1,0.3-6,0.8h-23.1l0.4,7.5c0,0.8,0.1,1.7,0.1,2.6c-4.4-6.8-12-11-21.1-11c-4.7,0-9,1-12.7,2.9
		l2-2.1h-31.6l-1.4,1.6V91l-25.8,10.5V162h25.8v-4.1l1.9,4.1h30.6l-1.1-1.9c3.5,1.7,7.5,2.7,11.9,2.7c8.3,0,17-3.7,21.9-11.4V162
		h67.2l0.5,18.6l24.1-9.1v-8.8c0.7,0.1,1.4,0.1,2.1,0.1c8.8,0,17.7-5.3,21.4-15.4c3.6,9.3,12.4,15.4,23.5,15.4
		c6.9,0,14.1-2.5,19.1-7.8v7H377h3.9h21.4v-28h1.7v8.1c0,6.9,1.6,11.9,5,15.4c3.2,3.3,8.1,5.2,13.4,5.2c3.6,0,10.5-1.3,11.9-1.6
		l4.5-0.9L438.5,138.2z M124.8,132.5l5.6-6c-1.4,3.3-2.2,7-2.2,11.1c0,0.2,0,0.4,0,0.6L124.8,132.5z M340,138c0-0.4,0-0.8,0-1.1
		c0-0.4,0-0.9,0-1.3h2.4L340,138z M371.1,138.9l5.9-6.4v6.4H371.1z"/>
	<polygon class="st5" points="115.8,156.5 108.8,141.6 104.9,145.4 104.9,156.5 90.1,156.5 90.1,105.2 104.9,99.2 104.9,128.6 
		114.3,118 130.8,118 118,131.8 133.1,156.5 	"/>
	<path class="st5" d="M153.6,157.3c-11.7,0-19.9-8.1-19.9-19.8c0-12.1,8.2-20.3,20.4-20.3c11.6,0,19.6,8.1,19.6,19.6
		C173.9,151,163.7,157.3,153.6,157.3z M153.9,128.4c-5.2,0-5.5,7.4-5.5,8.8c0,4.3,1.4,8.8,5.5,8.8c3.2,0,5.3-3.5,5.3-8.8
		C159.2,133.1,157.8,128.4,153.9,128.4z"/>
	<path class="st5" d="M225.4,156.5v-20.8c0-6.3-2.7-6.3-3.6-6.3c-1.9,0-3.1,1.4-3.6,2.7c-0.2,0.5-0.4,1.5-0.4,2.2v22.2h-14.7v-21.4
		c0-2.6-0.6-5.8-3.5-5.8c-2.4,0-3.4,2.2-3.7,2.8c-0.2,0.6-0.3,1.2-0.3,2.2v22.1H181v-25.6c0-4.4-0.2-8.1-0.3-11.1l-0.1-1.8h13.1
		l0.3,2.6c2.7-2.2,6.1-3.4,10-3.4c4.4,0,8.1,1.8,10.4,4.8c1.1-1.1,2.3-2,3.6-2.8c2.3-1.3,4.9-2,7.9-2c8.9,0,14.2,6.3,14.2,16.9v22.4
		H225.4z"/>
	<path class="st5" d="M248.5,172.7l-1-41.2c0-4.7-0.2-8.7-0.3-11.7l-0.1-1.8h12.8l0.3,2.8c2.7-2.3,6.3-3.5,10.5-3.5
		c8.1,0,16.3,6.7,16.3,19.6c0,14.1-9.1,20.5-17.6,20.5c-2.9,0-5.5-0.7-7.6-2v12.4L248.5,172.7z M266.9,129.2c-2.3,0-4.3,1.8-4.9,4.2
		c-0.1,0.5-0.2,1-0.2,1.6v4.8c0,0.7,0.1,1.4,0.2,1.9c0.6,2.3,2.5,3.8,4.7,3.8c5.4,0,5.8-6.3,5.8-8.2
		C272.6,135.4,272.1,129.2,266.9,129.2z"/>
	<path class="st5" d="M314.3,157.3c-11.7,0-19.9-8.1-19.9-19.8c0-12.1,8.2-20.3,20.4-20.3c11.6,0,19.6,8.1,19.6,19.6
		C334.5,151,324.3,157.3,314.3,157.3z M314.6,128.4c-5.2,0-5.5,7.4-5.5,8.8c0,4.3,1.4,8.8,5.5,8.8c3.2,0,5.3-3.5,5.3-8.8
		C319.8,133.1,318.5,128.4,314.6,128.4z"/>
	<polygon class="st5" points="338.9,156.5 338.9,147 355.6,130 340.2,130 340.2,118 374.7,118 374.7,126.8 358.5,144.4 375.4,144.4 
		375.4,156.5 	"/>
	<rect x="382.5" y="118" class="st5" width="14.3" height="38.5"/>
	<path class="st5" d="M389.5,113.4c-2.1,0-4.1-0.8-5.4-2.3c-1.3-1.4-2-3.2-1.9-5.2c0-2,0.6-3.9,1.9-5.2c1.4-1.5,3.3-2.3,5.5-2.3
		c4.3,0,7.4,3.1,7.5,7.5C397.2,110.3,394,113.4,389.5,113.4z"/>
	<path class="st5" d="M422.3,157.2c-3.8,0-7.2-1.3-9.4-3.5c-2.3-2.4-3.5-6.2-3.5-11.6v-13.6h-6.7V119h6.7v-10.3l14.1-5.2V119h7.8
		v9.4h-7.8v12c0,4.5,1.1,4.5,2.6,4.5c1,0,6.9-0.6,6.9-0.6l0.1,11.4C433.1,155.7,425.6,157.2,422.3,157.2z"/>
</g>
</svg>
