<svg xmlns="http://www.w3.org/2000/svg" width="72" height="108" viewBox="0 0 72 108">
    <path fill="#000" fill-rule="nonzero" d="M36 0C16.1 0 0 15.4 0 34.3v61.1c0 8.1 18.5 12.5 36 12.5s36-4.4 36-12.5V34.3C72 15.4 55.9 0 36 0zm0 3.4c15.8 0 29.1 10.8 32 25-6.4-4.3-19.5-6.5-32-6.5s-25.6 2.3-32 6.5c2.9-14.3 16.2-25 32-25zm32.6 92.1c0 3.8-12.4 9.1-32.6 9.1-20.2 0-32.6-5.3-32.6-9.1V39.9c6.1 4.6 19.7 7 32.6 7 12.9 0 26.5-2.4 32.6-7v55.6zM36 43.5c-20.2 0-32.6-5.3-32.6-9.1s12.4-9.1 32.6-9.1c20.2 0 32.6 5.3 32.6 9.1S56.2 43.5 36 43.5z"/>
</svg>
