<svg xmlns="http://www.w3.org/2000/svg" width="362" height="455" viewBox="0 0 362 455">
    <path fill="#B7A0CA" fill-rule="nonzero" d="M294.814 105.28C274.393 29.067 192.781-15.524 112.885 5.884 32.996 27.289-15.385 106.713 5.036 182.926l65.94 246.092c8.764 32.705 88.138 30.352 158.378 11.532 70.24-18.821 140.163-56.473 131.4-89.178l-65.94-246.091zM116.525 19.467c63.726-17.075 128.562 12 155.748 66.076-30.349-10.316-85.445-5.289-135.842 8.215-50.396 13.504-100.621 36.697-121.743 60.804-3.496-60.422 38.11-118.02 101.837-135.095zm230.638 335.548c4.114 15.353-40.1 50.155-121.449 71.952-81.342 21.796-137.032 13.764-141.146-1.59L38.12 252.029l1.771-.474c2.676-.525 5.309-.364 7.676.986 2.479 1.418 4.26 3.742 5.01 6.54l12.157 45.367c3.513 13.112 16.896 20.957 29.83 17.491l2.522-.675c12.934-3.466 20.602-16.951 17.088-30.064l-3.997-14.916c-.75-2.8-.366-5.696 1.075-8.172 1.376-2.352 3.573-4.05 6.2-4.704l2.304-.617c2.78-.617 5.307-.37 7.669.988 2.477 1.412 4.259 3.735 5.01 6.54l10.525 39.278c3.514 13.113 16.896 20.958 29.83 17.492l2.522-.676c12.935-3.466 20.602-16.95 17.088-30.063l-18.683-69.728c-.752-2.805-.37-5.709 1.069-8.17 1.362-2.348 3.401-3.897 6.207-4.706l2.244-.6.06-.017c2.596-.503 5.306-.37 7.669.988 2.477 1.412 4.258 3.735 5.01 6.54l12.156 45.367c3.514 13.113 16.896 20.958 29.83 17.492l2.522-.676c12.935-3.465 20.602-16.95 17.089-30.063l-3.997-14.917c-.75-2.799-.369-5.702 1.069-8.17 1.375-2.352 3.648-4.062 6.214-4.708l2.296-.615.08-.021c2.555-.685 5.247-.326 7.59 1.015 2.486 1.417 4.268 3.74 5.016 6.533l10.524 39.277c3.514 13.113 16.897 20.958 29.83 17.492l2.523-.676c3.501-.938 6.57-2.655 9.183-4.856l19.262 71.883zm-24.797-92.543c.954 5.323-2.137 10.553-7.287 11.933l-2.522.676c-5.442 1.458-11.093-1.926-12.6-7.55l-10.524-39.278c-1.727-6.446-5.853-11.81-11.622-15.105-5.652-3.227-12.482-3.95-18.354-2.347l-2.177.584c-6.377 1.765-11.514 5.608-14.788 11.227-3.344 5.73-4.236 12.437-2.507 18.89l3.997 14.917c1.507 5.624-1.695 11.38-7.137 12.839l-2.521.675c-5.442 1.459-11.093-1.926-12.6-7.55l-12.156-45.366c-1.729-6.453-5.856-11.823-11.618-15.114-5.645-3.229-12.484-4.147-18.352-2.34l-2.184.585-.06.016c-.018.005-.03.019-.048.024-6.296 1.703-11.418 5.6-14.675 11.178-3.344 5.73-4.234 12.445-2.505 18.898l18.684 69.728c1.507 5.624-1.696 11.38-7.137 12.838l-2.522.676c-5.442 1.458-11.092-1.926-12.6-7.55l-10.524-39.278c-1.729-6.454-5.856-11.823-11.618-15.114-5.643-3.222-12.426-4.035-18.352-2.34l-2.184.585c-6.414 1.598-11.493 5.603-14.774 11.223-3.35 5.738-4.24 12.446-2.513 18.893l3.997 14.916c1.507 5.625-1.695 11.38-7.136 12.839l-2.522.676c-5.442 1.458-11.093-1.926-12.6-7.55L66.17 255.437c-1.729-6.453-5.854-11.817-11.616-15.107-5.646-3.235-12.433-4.168-18.36-2.345l-1.713.46-9.887-36.9c29.603 11.756 86.712 6.874 138.82-7.089 52.11-13.963 104.013-38.291 123.775-63.274l35.178 131.288zm-162.592-81.597c-81.342 21.796-137.032 13.764-141.147-1.59-4.114-15.355 40.102-50.149 121.444-71.944 81.348-21.798 137.037-13.773 141.152 1.582 4.114 15.354-40.1 50.155-121.449 71.952z" opacity=".1"/>
</svg>
