<svg xmlns="http://www.w3.org/2000/svg" xmlns:xlink="http://www.w3.org/1999/xlink" width="44" height="51" viewBox="0 0 44 51">
    <defs>
        <path id="a" d="M44 51H0V.352h44V51z"/>
    </defs>
    <g fill="none" fill-rule="evenodd">
        <path fill="#D0021B" d="M30 34v3h.708C31.836 37 32 36.041 32 35.466c0-.389-.115-1.466-1.424-1.466H30zM23 34v1h.841c.566 0 1.159-.028 1.159-.525 0-.448-.495-.475-1.03-.475H23z"/>
        <mask id="b" fill="#fff">
            <use xlink:href="#a"/>
        </mask>
        <path fill="#D0021B" d="M41.086 34.123h-3.268v.89h2.805v1.696h-2.805v2.716h-2.165v-7.128h5.433v1.826zm-13.819.61c0 1.726-1.141 2.536-2.757 2.536h-1.278v2.154h-2.166v-7.126h3.623c1.908 0 2.578 1.418 2.578 2.437zm7.451 1.118c0 2.185-1.143 3.572-3.593 3.572h-3.13v-7.126h3.553c2.343 0 3.17 1.757 3.17 3.554zm2.11 8.5c0 1.919-1.54 3.48-3.432 3.48H6.556c-1.894 0-3.432-1.561-3.432-3.48V7.001c0-1.92 1.538-3.482 3.432-3.482h18.793v13.012h11.479v11.795h-16.34c-1.812 0-3.282 1.489-3.282 3.327v7.764c0 1.837 1.47 3.328 3.281 3.328h16.34v1.606zM28.473 6.082l6.424 7.282h-6.424V6.082zM40.72 28.326h-.77V14.34L27.61.352H6.556C2.94.352 0 3.334 0 7.002v37.35C0 48.016 2.94 51 6.556 51h26.84c3.614 0 6.556-2.982 6.556-6.649v-1.606h.768c1.811 0 3.28-1.49 3.28-3.33v-7.762c0-1.838-1.469-3.327-3.28-3.327z" mask="url(#b)"/>
    </g>
</svg>
