<svg xmlns="http://www.w3.org/2000/svg" xmlns:xlink="http://www.w3.org/1999/xlink" width="120" height="120" viewBox="0 0 120 120">
    <defs>
        <circle id="b" cx="50" cy="50" r="50"/>
        <filter id="a" width="132%" height="132%" x="-16%" y="-14%" filterUnits="objectBoundingBox">
            <feOffset dy="2" in="SourceAlpha" result="shadowOffsetOuter1"/>
            <feGaussianBlur in="shadowOffsetOuter1" result="shadowBlurOuter1" stdDeviation="5"/>
            <feComposite in="shadowBlurOuter1" in2="SourceAlpha" operator="out" result="shadowBlurOuter1"/>
            <feColorMatrix in="shadowBlurOuter1" values="0 0 0 0 0 0 0 0 0 0 0 0 0 0 0 0 0 0 0.3 0"/>
        </filter>
    </defs>
    <g fill="none" fill-rule="evenodd" transform="translate(10 8)">
        <circle cx="50" cy="50" r="50" fill="#FFF" fill-opacity=".7"/>
        <path fill="#1A1919" d="M39.251 30.447c-.385 0-.73.086-1.022.253-.838.483-1.318 1.681-1.318 3.284v32.422c0 1.5.416 2.65 1.111 3.077.629.387 1.648.262 2.8-.34l29.194-17.3c.983-.656 1.572-1.62 1.516-2.585-.058-.981-.776-1.892-1.973-2.496L41.537 31.194c-.84-.497-1.622-.747-2.286-.747zm-.388 43.944a6.146 6.146 0 0 1-3.258-.904c-2.16-1.32-3.349-3.835-3.349-7.08V33.983c0-3.332 1.333-6.012 3.66-7.351 2.286-1.319 5.174-1.14 7.924.487l27.887 15.494c2.604 1.314 4.299 3.711 4.452 6.372.154 2.642-1.232 5.198-3.705 6.836l-29.4 17.422c-1.467.767-2.889 1.147-4.21 1.147z"/>
        <use fill="#000" filter="url(#a)" xlink:href="#b"/>
        <use fill="#FFF" fill-opacity=".9" xlink:href="#b"/>
        <g fill="#1A1919">
            <path d="M39.251 30.447c-.385 0-.73.086-1.022.253-.838.483-1.318 1.681-1.318 3.284v32.422c0 1.5.416 2.65 1.111 3.077.629.387 1.648.262 2.8-.34l29.194-17.3c.983-.656 1.572-1.62 1.516-2.585-.058-.981-.776-1.892-1.973-2.496L41.537 31.194c-.84-.497-1.622-.747-2.286-.747zm-.388 43.944a6.146 6.146 0 0 1-3.258-.904c-2.16-1.32-3.349-3.835-3.349-7.08V33.983c0-3.332 1.333-6.012 3.66-7.351 2.286-1.319 5.174-1.14 7.924.487l27.887 15.494c2.604 1.314 4.299 3.711 4.452 6.372.154 2.642-1.232 5.198-3.705 6.836l-29.4 17.422c-1.467.767-2.889 1.147-4.21 1.147z"/>
        </g>
    </g>
</svg>
