<svg xmlns="http://www.w3.org/2000/svg" xmlns:xlink="http://www.w3.org/1999/xlink" width="52" height="80" viewBox="0 0 52 80">
    <defs>
        <path id="b" d="M2.552 60a2.545 2.545 0 0 1-1.791-.736 2.572 2.572 0 0 1-.028-3.625l25.135-25.64L.733 4.359A2.57 2.57 0 0 1 .761.736a2.546 2.546 0 0 1 3.608.027l26.899 27.439a2.571 2.571 0 0 1 0 3.594l-26.9 27.439A2.537 2.537 0 0 1 2.553 60"/>
        <filter id="a" width="206.2%" height="156.7%" x="-53.1%" y="-21.7%" filterUnits="objectBoundingBox">
            <feOffset dy="4" in="SourceAlpha" result="shadowOffsetOuter1"/>
            <feGaussianBlur in="shadowOffsetOuter1" result="shadowBlurOuter1" stdDeviation="5"/>
            <feColorMatrix in="shadowBlurOuter1" values="0 0 0 0 0 0 0 0 0 0 0 0 0 0 0 0 0 0 0.5 0"/>
        </filter>
    </defs>
    <g fill="none" fill-rule="evenodd" opacity=".9" transform="translate(10 6)">
        <use fill="#000" filter="url(#a)" xlink:href="#b"/>
        <use fill="#F5F5F5" xlink:href="#b"/>
    </g>
</svg>
